<svg width="400" height="400" viewBox="0 0 400 400" fill="none" xmlns="http://www.w3.org/2000/svg">
<rect width="400" height="400" fill="black"/>
<path d="M169.12 163.711C209.135 163.835 241.535 196.311 241.535 236.354C241.535 276.399 209.135 308.875 169.12 308.999V246.961H96.5791V225.817H131.888C110.783 213.161 96.6364 190.093 96.5508 163.713H169.12V163.711ZM231.019 91.3672C270.841 91.3672 303.124 123.649 303.124 163.472H169.215V91.3672H231.019ZM133.029 107.232C142.761 107.233 150.65 115.122 150.65 124.854C150.65 134.585 142.761 142.474 133.029 142.475C123.297 142.475 115.407 134.585 115.407 124.854C115.407 115.121 123.297 107.232 133.029 107.232Z" fill="white"/>
</svg>
