<svg width="88" height="93" viewBox="0 0 88 93" fill="none" xmlns="http://www.w3.org/2000/svg">
<path d="M30.8779 30.7061C47.8232 30.8028 61.5303 44.5681 61.5303 61.5361C61.5299 78.5312 47.7787 92.3135 30.7959 92.3662V66.0371H0.00683594V57.0635H14.9971C6.03827 51.6921 0.0323423 41.9015 -0.00390625 30.7041H30.8779V30.7061ZM57.0654 0C73.9667 0 87.668 13.7013 87.668 30.6025H30.835V0H57.0654ZM15.4775 6.7334C19.6079 6.7334 22.9569 10.0816 22.957 14.2119C22.957 18.3423 19.608 21.6914 15.4775 21.6914C11.3472 21.6912 7.99902 18.3423 7.99902 14.2119C7.99918 10.0817 11.3473 6.73356 15.4775 6.7334Z" fill="white"/>
</svg>
