<svg width="88" height="93" viewBox="0 0 88 93" fill="none" xmlns="http://www.w3.org/2000/svg">
<path d="M30.8359 0H57.0666C73.9679 0 87.6691 13.7012 87.6691 30.6025H30.8359V0Z" fill="white"/>
<path d="M30.7969 30.7056C47.78 30.7582 61.5313 44.5402 61.5313 61.5356C61.5311 78.531 47.7799 92.314 30.7969 92.3667L30.7969 30.7056Z" fill="white"/>
<ellipse cx="15.4788" cy="14.2122" rx="7.47881" ry="7.47881" fill="white"/>
<ellipse cx="15.4788" cy="14.2122" rx="7.47881" ry="7.47881" fill="white"/>
<path d="M30.8779 30.7041L30.8779 61.4336C30.861 61.4336 30.8441 61.4346 30.8271 61.4346C13.8331 61.4346 0.0510641 47.6852 -0.00390759 30.7041L30.8779 30.7041Z" fill="white"/>
<rect x="0.0078125" y="57.063" width="30.8325" height="8.97365" fill="white"/>
<rect x="0.0078125" y="57.063" width="30.8325" height="8.97365" fill="white"/>
</svg>
